<svg width="16" height="16" viewBox="0 0 16 16" fill="none" xmlns="http://www.w3.org/2000/svg">
<g id="&#208;&#154;&#208;&#176;&#208;&#187;&#208;&#181;&#208;&#189;&#208;&#180;&#208;&#176;&#209;&#128;&#209;&#140;">
<path id="calendar" d="M2.6665 2.00033L3.33317 2.00033L3.33317 0.666993L4.6665 0.666993L4.6665 2.00033L11.3332 2.00033L11.3332 0.666992L12.6665 0.666992L12.6665 2.00033L13.3332 2.00033C14.0665 2.00033 14.6665 2.60033 14.6665 3.33366L14.6665 14.0003C14.6665 14.7337 14.0665 15.3337 13.3332 15.3337L2.66651 15.3337C1.93317 15.3337 1.33317 14.7337 1.33317 14.0003L1.33317 3.33366C1.33317 2.60033 1.93317 2.00033 2.6665 2.00033ZM2.66651 14.0003L13.3332 14.0003L13.3332 6.66699L2.6665 6.66699L2.66651 14.0003ZM2.6665 5.33366L13.3332 5.33366L13.3332 3.33366L2.6665 3.33366L2.6665 5.33366Z" fill="#7A91A9"/>
</g>
</svg>
